<svg xmlns="http://www.w3.org/2000/svg" viewBox="0 0 827.46 228.94"><g id="Layer_2" data-name="Layer 2"><g id="Layer_3" data-name="Layer 3"><path d="M0,200.92V64H24.9v137ZM24.9,26.14A12.45,12.45,0,1,1,12.45,13.69,12.44,12.44,0,0,1,24.9,26.14Z"/><path d="M224.41,228.94c-25.75-6.79-50.94-14.43-73-22.07-4-1.42-7.93-2.83-11.6-2.83-45.28-1.7-84.05-35.09-84.05-96.5C55.75,46.41,93.1,7.07,144.61,7.07c51.78,0,85.46,40.19,85.46,96.5,0,49-22.64,80.37-54.33,91.41v1.13c19,4.81,39.61,9.34,55.74,12.17ZM204,104.71c0-38.21-19.8-77.54-60.27-77.54-41.6,0-62,38.48-61.69,79.8-.29,40.47,22.07,77,60.56,77C182,183.94,204,148.29,204,104.71Z"/><path d="M376.66,163.57c0,14.15.28,26.6,1.13,37.35H355.72l-1.42-22.35h-.57A51.53,51.53,0,0,1,308.46,204c-21.51,0-47.26-11.89-47.26-60V64h24.9V139.8c0,26,7.92,43.58,30.56,43.58,16.7,0,28.3-11.6,32.83-22.64A36.56,36.56,0,0,0,351.75,148V64h24.91Z"/><path d="M416.84,200.92c.57-9.34,1.13-23.2,1.13-35.37V0h24.62V86h.57c8.77-15.28,24.62-25.19,46.69-25.19,34,0,58,28.3,57.73,69.9,0,49-30.84,73.3-61.41,73.3-19.81,0-35.65-7.64-45.84-25.76h-.85l-1.13,22.64ZM442.59,146a46.29,46.29,0,0,0,1.14,9.06c4.81,17.26,19.24,29.15,37.35,29.15,26,0,41.6-21.23,41.6-52.64,0-27.45-14.15-50.94-40.75-50.94-17,0-32.83,11.6-37.92,30.57a48.62,48.62,0,0,0-1.42,10.18Z"/><path d="M592.86,137c.56,33.67,22.07,47.54,47,47.54,17.82,0,28.58-3.11,37.92-7.08L682,195.26c-8.77,4-23.77,8.49-45.56,8.49-42.17,0-67.35-27.73-67.35-69.05s24.33-73.86,64.24-73.86c44.71,0,56.59,39.34,56.59,64.52a95,95,0,0,1-.84,11.61Zm73-17.83c.28-15.85-6.51-40.47-34.52-40.47-25.19,0-36.23,23.21-38.21,40.47Z"/><path d="M718.22,170.93a87.29,87.29,0,0,0,44.15,12.45c25.18,0,39.9-13.3,39.9-32.55,0-17.82-10.19-28-35.94-37.92-31.13-11-50.37-27.16-50.37-54,0-29.71,24.62-51.79,61.69-51.79,19.53,0,33.68,4.53,42.17,9.34L813,36.51a75.88,75.88,0,0,0-36.22-9.06c-26,0-35.94,15.56-35.94,28.58,0,17.83,11.6,26.6,37.92,36.79,32.26,12.45,48.68,28,48.68,56,0,29.43-21.79,54.9-66.79,54.9-18.39,0-38.49-5.37-48.67-12.17Z"/></g></g></svg>